<svg xmlns="http://www.w3.org/2000/svg" xmlns:svg="http://www.w3.org/2000/svg" id="svg2" width="210mm" height="297mm" version="1.1"><defs id="defs4"><marker id="Arrow1Sstart" orient="auto" refX="0" refY="0" style="overflow:visible"><path id="path3820" d="M 0.0,0.0 L 5.0,-5.0 L -12.5,0.0 L 5.0,5.0 L 0.0,0.0 z" transform="scale(0.2) translate(6,0)" style="fill-rule:evenodd;stroke:#000;stroke-width:1pt;marker-start:none"/></marker></defs><metadata id="metadata7"/><g id="layer1"><path style="fill:#0f0;fill-opacity:1;stroke:#fff;stroke-opacity:1;stroke-width:.10000000000000001;stroke-miterlimit:4;stroke-dasharray:none;stroke-linejoin:round" id="path2826-6" d="m 79.783443,77.952737 c 3.068594,-1.771654 3.068594,-1.771654 3.068594,-1.771654 l 0,3.543307 -3.068594,-1.771653"/><path style="fill:#0f0;fill-opacity:1;stroke:#fff;stroke-opacity:1;stroke-width:.10000000000000001;stroke-miterlimit:4;stroke-dasharray:none;stroke-linejoin:round" id="path2826-4" d="m 79.783443,81.496044 c 3.068594,-1.771654 3.068594,-1.771654 3.068594,-1.771654 l 0,3.543307 -3.068594,-1.771653"/><path style="fill:#0f0;fill-opacity:1;stroke:#fff;stroke-opacity:1;stroke-width:.10000000000000001;stroke-miterlimit:4;stroke-dasharray:none;stroke-linejoin:round" id="path2826-7" d="m 82.852037,83.267697 c 3.068594,-1.771654 3.068594,-1.771654 3.068594,-1.771654 l 0,3.543307 -3.068594,-1.771653"/><path style="fill:#0f0;fill-opacity:1;stroke:#fff;stroke-opacity:1;stroke-width:.10000000000000001;stroke-miterlimit:4;stroke-dasharray:none;stroke-linejoin:round" id="path2826-0-2" d="m 85.920631,81.496037 c -3.068594,-1.771654 -3.068594,-1.771654 -3.068594,-1.771654 l 0,3.543307 3.068594,-1.771653"/><path style="fill:#0f0;fill-opacity:1;stroke:#fff;stroke-opacity:1;stroke-width:.10000000000000001;stroke-miterlimit:4;stroke-dasharray:none;stroke-linejoin:round" id="path2826-0-8" d="m 88.989225,83.267691 c -3.068594,-1.771654 -3.068594,-1.771654 -3.068594,-1.771654 l 0,3.543307 3.068594,-1.771653"/><path style="fill:#0f0;fill-opacity:1;stroke:#fff;stroke-opacity:1;stroke-width:.10000000000000001;stroke-miterlimit:4;stroke-dasharray:none;stroke-linejoin:round" id="path2826-73-3" d="m 85.920631,81.496043 c 3.068594,-1.771654 3.068594,-1.771654 3.068594,-1.771654 l 0,3.543307 -3.068594,-1.771653"/><path style="fill:#0f0;fill-opacity:1;stroke:#fff;stroke-opacity:1;stroke-width:.10000000000000001;stroke-miterlimit:4;stroke-dasharray:none;stroke-linejoin:round" id="path2826-7-3" d="m 88.989225,79.72439 c 3.068594,-1.771654 3.068594,-1.771654 3.068594,-1.771654 l 0,3.543307 -3.068594,-1.771653"/><path style="fill:#0f0;fill-opacity:1;stroke:#fff;stroke-opacity:1;stroke-width:.10000000000000001;stroke-miterlimit:4;stroke-dasharray:none;stroke-linejoin:round" id="path2826-0-2-4" d="m 82.852037,79.724383 c -3.068594,-1.771654 -3.068594,-1.771654 -3.068594,-1.771654 l 0,3.543307 3.068594,-1.771653"/><path style="fill:#0f0;fill-opacity:1;stroke:#fff;stroke-opacity:1;stroke-width:.10000000000000001;stroke-miterlimit:4;stroke-dasharray:none;stroke-linejoin:round" id="path2826-0-2-1" d="m 92.057819,77.95273 c -3.068594,-1.771654 -3.068594,-1.771654 -3.068594,-1.771654 l 0,3.543307 3.068594,-1.771653"/><path style="fill:#0f0;fill-opacity:1;stroke:#fff;stroke-opacity:1;stroke-width:.10000000000000001;stroke-miterlimit:4;stroke-dasharray:none;stroke-linejoin:round" id="path2826-0-2-10" d="m 92.057819,81.496037 c -3.068594,-1.771654 -3.068594,-1.771654 -3.068594,-1.771654 l 0,3.543307 3.068594,-1.771653"/><path style="fill:#f0f;fill-opacity:1;stroke:#fff;stroke-opacity:1;stroke-width:.10000000000000001;stroke-miterlimit:4;stroke-dasharray:none;stroke-linejoin:round" id="path2826" d="M 89 76.1875 L 85.90625 77.9375 L 85.90625 81.5 L 89 79.71875 L 89 76.1875 z"/><path style="fill:purple;fill-opacity:1;stroke:#fff;stroke-opacity:1;stroke-width:.10000000000000001;stroke-miterlimit:4;stroke-dasharray:none;stroke-linejoin:round" id="path2826-0" d="M 85.90625 74.40625 L 82.84375 76.1875 L 85.90625 77.9375 L 89 76.1875 L 85.90625 74.40625 z"/><path style="fill:#ff0;fill-opacity:1;stroke:#fff;stroke-opacity:1;stroke-width:.10000000000000001;stroke-miterlimit:4;stroke-dasharray:none;stroke-linejoin:round" id="path2826-1" d="M 82.84375 76.1875 L 82.84375 79.71875 L 85.90625 81.5 L 85.90625 77.9375 L 82.84375 76.1875 z"/><path style="fill:#0f0;fill-opacity:1;stroke:#fff;stroke-opacity:1;stroke-width:.10000000000000001;stroke-miterlimit:4;stroke-dasharray:none;stroke-linejoin:round" id="path2826-0-2-5" d="m 95.126413,79.724383 c -3.068594,-1.771654 -3.068594,-1.771654 -3.068594,-1.771654 l 0,3.543307 3.068594,-1.771653"/><path style="fill:#0f0;fill-opacity:1;stroke:#fff;stroke-opacity:1;stroke-width:.10000000000000001;stroke-miterlimit:4;stroke-dasharray:none;stroke-linejoin:round" id="path2826-7-3-8" d="m 76.714849,79.724387 c 3.068594,-1.771654 3.068594,-1.771654 3.068594,-1.771654 l 0,3.543307 -3.068594,-1.771653"/><path style="fill:#0f0;fill-opacity:1;stroke:#fff;stroke-width:.1;stroke-linejoin:round;stroke-miterlimit:4;stroke-opacity:1;stroke-dasharray:none" id="path2826-0-2-10-6" d="M 104.33219,85.039344 C 101.2636,83.26769 101.2636,83.26769 101.2636,83.26769 l 0,3.543307 3.06859,-1.771653"/><path style="fill:#00f;fill-opacity:1;stroke:#fff;stroke-width:.10000000000000001;stroke-linejoin:round;stroke-miterlimit:4;stroke-opacity:1;stroke-dasharray:none" id="path2826-0-2-10-5" d="m 104.33219,88.582651 c -3.06859,-1.771654 -3.06859,-1.771654 -3.06859,-1.771654 l 0,3.543307 3.06859,-1.771653"/><path style="fill:red;fill-opacity:1;stroke:#fff;stroke-width:.10000000000000001;stroke-linejoin:round;stroke-miterlimit:4;stroke-opacity:1;stroke-dasharray:none" id="path2826-0-2-10-51" d="m 104.33219,92.125958 c -3.06859,-1.771654 -3.06859,-1.771654 -3.06859,-1.771654 l 0,3.543307 3.06859,-1.771653"/><path style="fill:#0f0;fill-opacity:1;stroke:#fff;stroke-width:.1;stroke-linejoin:round;stroke-miterlimit:4;stroke-opacity:1;stroke-dasharray:none" id="path2826-0-2-10-0" d="m 110.46938,92.125958 c -3.06859,-1.771654 -3.06859,-1.771654 -3.06859,-1.771654 l 0,3.543307 3.06859,-1.771653"/><path style="fill:#ff0;fill-opacity:1;stroke:#fff;stroke-width:.10000000000000001;stroke-linejoin:round;stroke-miterlimit:4;stroke-opacity:1;stroke-dasharray:none" id="path2826-0-2-10-09" d="m 110.46938,88.582651 c -3.06859,-1.771654 -3.06859,-1.771654 -3.06859,-1.771654 l 0,3.543307 3.06859,-1.771653"/><path style="fill:red;fill-opacity:1;stroke:#fff;stroke-width:.10000000000000001;stroke-linejoin:round;stroke-miterlimit:4;stroke-opacity:1;stroke-dasharray:none" id="path2826-0-2-10-08" d="m 107.40079,90.354304 c -3.0686,-1.771654 -3.0686,-1.771654 -3.0686,-1.771654 l 0,3.543307 3.0686,-1.771653"/><path style="fill:#f0f;fill-opacity:1;stroke:#fff;stroke-width:.10000000000000001;stroke-linejoin:round;stroke-miterlimit:4;stroke-opacity:1;stroke-dasharray:none" id="path2826-0-2-10-01" d="m 113.53798,90.354304 c -3.0686,-1.771654 -3.0686,-1.771654 -3.0686,-1.771654 l 0,3.543307 3.0686,-1.771653"/><path style="fill:purple;fill-opacity:1;stroke:#fff;stroke-width:.1;stroke-linejoin:round;stroke-miterlimit:4;stroke-opacity:1;stroke-dasharray:none" id="path2826-0-2-10-2" d="m 113.53798,86.810997 c -3.0686,-1.771654 -3.0686,-1.771654 -3.0686,-1.771654 l 0,3.543307 3.0686,-1.771653"/><path style="fill:#00f;fill-opacity:1;stroke:#fff;stroke-width:.10000000000000001;stroke-linejoin:round;stroke-miterlimit:4;stroke-opacity:1;stroke-dasharray:none" id="path2826-0-2-10-3" d="m 116.60657,92.125958 c -3.06859,-1.771654 -3.06859,-1.771654 -3.06859,-1.771654 l 0,3.543307 3.06859,-1.771653"/><path style="fill:#00f;fill-opacity:1;stroke:#fff;stroke-width:.10000000000000001;stroke-linejoin:round;stroke-miterlimit:4;stroke-opacity:1;stroke-dasharray:none" id="path2826-0-2-10-7" d="m 119.67516,90.354304 c -3.06859,-1.771654 -3.06859,-1.771654 -3.06859,-1.771654 l 0,3.543307 3.06859,-1.771653"/><path style="fill:red;fill-opacity:1;stroke:#fff;stroke-width:.10000000000000001;stroke-linejoin:round;stroke-miterlimit:4;stroke-opacity:1;stroke-dasharray:none" id="path2826-7-36" d="m 101.2636,86.811004 c 3.06859,-1.771654 3.06859,-1.771654 3.06859,-1.771654 l 0,3.543307 -3.06859,-1.771653"/><path style="fill:green;fill-opacity:1;stroke:#fff;stroke-width:.10000000000000001;stroke-linejoin:round;stroke-miterlimit:4;stroke-opacity:1;stroke-dasharray:none" id="path2826-7-9" d="m 101.2636,90.354311 c 3.06859,-1.771654 3.06859,-1.771654 3.06859,-1.771654 l 0,3.543307 -3.06859,-1.771653"/><path style="fill:red;fill-opacity:1;stroke:#fff;stroke-width:.10000000000000001;stroke-linejoin:round;stroke-miterlimit:4;stroke-opacity:1;stroke-dasharray:none" id="path2826-7-7" d="m 104.33219,92.125964 c 3.0686,-1.771654 3.0686,-1.771654 3.0686,-1.771654 l 0,3.543307 -3.0686,-1.771653"/><path style="fill:#ff0;fill-opacity:1;stroke:#fff;stroke-width:.10000000000000001;stroke-linejoin:round;stroke-miterlimit:4;stroke-opacity:1;stroke-dasharray:none" id="path2826-7-0" d="m 110.46938,92.125964 c 3.0686,-1.771654 3.0686,-1.771654 3.0686,-1.771654 l 0,3.543307 -3.0686,-1.771653"/><path style="fill:#00f;fill-opacity:1;stroke:#fff;stroke-width:.10000000000000001;stroke-linejoin:round;stroke-miterlimit:4;stroke-opacity:1;stroke-dasharray:none" id="path2826-7-32" d="m 116.60657,92.125964 c 3.06859,-1.771654 3.06859,-1.771654 3.06859,-1.771654 l 0,3.543307 -3.06859,-1.771653"/><path style="fill:#f0f;fill-opacity:1;stroke:#fff;stroke-width:.10000000000000001;stroke-linejoin:round;stroke-miterlimit:4;stroke-opacity:1;stroke-dasharray:none" id="path2826-7-97" d="m 110.46938,88.582657 c 3.0686,-1.771654 3.0686,-1.771654 3.0686,-1.771654 l 0,3.543307 -3.0686,-1.771653"/><path style="fill:#ff0;fill-opacity:1;stroke:#fff;stroke-width:.10000000000000001;stroke-linejoin:round;stroke-miterlimit:4;stroke-opacity:1;stroke-dasharray:none" id="path2826-7-2" d="m 107.40079,90.354311 c 3.06859,-1.771654 3.06859,-1.771654 3.06859,-1.771654 l 0,3.543307 -3.06859,-1.771653"/><path style="fill:purple;fill-opacity:1;stroke:#fff;stroke-width:.10000000000000001;stroke-linejoin:round;stroke-miterlimit:4;stroke-opacity:1;stroke-dasharray:none" id="path2826-7-5" d="m 107.40079,86.811004 c 3.06859,-1.771654 3.06859,-1.771654 3.06859,-1.771654 l 0,3.543307 -3.06859,-1.771653"/></g></svg>