<svg xmlns="http://www.w3.org/2000/svg" xmlns:svg="http://www.w3.org/2000/svg" id="svg2" width="600" height="400" version="1.1"><metadata id="metadata7"/><g id="layer1" transform="translate(0,-652.36218)"><rect style="fill:#fff;fill-opacity:.98823529;stroke:none" id="rect4325" width="600" height="400" x="0" y="652.362"/><path style="fill:#fff;stroke:#000;stroke-width:1.36794686;stroke-miterlimit:4;stroke-opacity:1;stroke-dasharray:none" id="path3593" d="m 420,226 c 0,30.92795 -25.51977,56 -57,56 -31.48023,0 -57,-25.07205 -57,-56 0,-30.92795 25.51977,-56 57,-56 31.48023,0 57,25.07205 57,56 z" transform="matrix(2.7734416,0,0,2.8229675,-706.7593,214.37165)"/><path style="fill:#e2007a;fill-opacity:.98823529000000021;stroke:none;stroke-width:7.90438727;stroke-miterlimit:4;stroke-dasharray:none" id="path3595" d="m 110,278 c 0,13.25483 -15.670034,24 -35,24 -19.329966,0 -35,-10.74517 -35,-24 0,-13.25483 15.670034,-24 35,-24 19.329966,0 35,10.74517 35,24 z" transform="matrix(0.31428572,0,0,0.45833333,35.225356,859.64873)"/><path style="fill:#97be0d;fill-opacity:.98823529000000021;stroke:none;stroke-width:7.90438727;stroke-miterlimit:4;stroke-dasharray:none" id="path3595-5" d="m 110,278 c 0,13.25483 -15.670034,24 -35,24 -19.329966,0 -35,-10.74517 -35,-24 0,-13.25483 15.670034,-24 35,-24 19.329966,0 35,10.74517 35,24 z" transform="matrix(0.31428572,0,0,0.45833333,332.42857,679.44551)"/><path style="fill:#e53517;fill-opacity:1;stroke:none" id="path3595-50" d="m 110,278 c 0,13.25483 -15.670034,24 -35,24 -19.329966,0 -35,-10.74517 -35,-24 0,-13.25483 15.670034,-24 35,-24 19.329966,0 35,10.74517 35,24 z" transform="matrix(0.31428572,0,0,0.45833333,217.63399,776.39021)"/><path style="fill:#fc0;fill-opacity:.98823529;stroke:none" id="path3595-8" d="m 110,278 c 0,13.25483 -15.670034,24 -35,24 -19.329966,0 -35,-10.74517 -35,-24 0,-13.25483 15.670034,-24 35,-24 19.329966,0 35,10.74517 35,24 z" transform="matrix(0.31428572,0,0,0.45833333,220.61593,854.53468)"/><path style="fill:#008bd0;fill-opacity:.97647059000000003;stroke:none;stroke-width:7.90438727;stroke-miterlimit:4;stroke-dasharray:none" id="path3595-7" d="m 110,278 c 0,13.25483 -15.670034,24 -35,24 -19.329966,0 -35,-10.74517 -35,-24 0,-13.25483 15.670034,-24 35,-24 19.329966,0 35,10.74517 35,24 z" transform="matrix(0.31428572,0,0,0.45833333,50.428569,895.94551)"/><path style="fill:#6d1f80;fill-opacity:.98823529;stroke:none" id="path3595-81" d="m 110,278 c 0,13.25483 -15.670034,24 -35,24 -19.329966,0 -35,-10.74517 -35,-24 0,-13.25483 15.670034,-24 35,-24 19.329966,0 35,10.74517 35,24 z" transform="matrix(0.31428572,0,0,0.45833333,193.7446,743.37892)"/><path style="fill:#fc0;fill-opacity:.98823529000000021;stroke:none;stroke-width:7.90438727;stroke-miterlimit:4;stroke-dasharray:none" id="path3595-8-1" d="m 110,278 c 0,13.25483 -15.670034,24 -35,24 -19.329966,0 -35,-10.74517 -35,-24 0,-13.25483 15.670034,-24 35,-24 19.329966,0 35,10.74517 35,24 z" transform="matrix(0.31428572,0,0,0.45833333,370.92857,750.44551)"/><path style="fill:#008bd0;fill-opacity:.97647059000000003;stroke:none;stroke-width:7.90438727;stroke-miterlimit:4;stroke-dasharray:none" id="path3595-7-5" d="m 110,278 c 0,13.25483 -15.670034,24 -35,24 -19.329966,0 -35,-10.74517 -35,-24 0,-13.25483 15.670034,-24 35,-24 19.329966,0 35,10.74517 35,24 z" transform="matrix(0.31428572,0,0,0.45833333,318.92857,719.44551)"/><path style="fill:#e53517;fill-opacity:.98823529000000021;stroke:none;stroke-width:7.90438727;stroke-miterlimit:4;stroke-dasharray:none" id="path3595-50-9" d="m 110,278 c 0,13.25483 -15.670034,24 -35,24 -19.329966,0 -35,-10.74517 -35,-24 0,-13.25483 15.670034,-24 35,-24 19.329966,0 35,10.74517 35,24 z" transform="matrix(0.31428572,0,0,0.45833333,264.42857,777.44551)"/><path style="fill:#6d1f80;fill-opacity:.98823529;stroke:none" id="path3595-81-9" d="m 110,278 c 0,13.25483 -15.670034,24 -35,24 -19.329966,0 -35,-10.74517 -35,-24 0,-13.25483 15.670034,-24 35,-24 19.329966,0 35,10.74517 35,24 z" transform="matrix(0.31428572,0,0,0.45833333,295.84618,787.9647)"/><path style="fill:#97be0d;fill-opacity:.98823529000000021;stroke:none;stroke-width:7.90438727;stroke-miterlimit:4;stroke-dasharray:none" id="path3595-5-1" d="m 110,278 c 0,13.25483 -15.670034,24 -35,24 -19.329966,0 -35,-10.74517 -35,-24 0,-13.25483 15.670034,-24 35,-24 19.329966,0 35,10.74517 35,24 z" transform="matrix(0.31428572,0,0,0.45833333,316.42857,758.44551)"/><path style="fill:#6d1f80;fill-opacity:.98823529000000021;stroke:none;stroke-width:7.90438727;stroke-miterlimit:4;stroke-dasharray:none" id="path3595-81-6" d="m 110,278 c 0,13.25483 -15.670034,24 -35,24 -19.329966,0 -35,-10.74517 -35,-24 0,-13.25483 15.670034,-24 35,-24 19.329966,0 35,10.74517 35,24 z" transform="matrix(0.31428572,0,0,0.45833333,289.92857,685.44551)"/><path style="fill:none;stroke:#000;stroke-width:3;stroke-linecap:butt;stroke-linejoin:miter;stroke-miterlimit:4;stroke-opacity:1;stroke-dasharray:none" id="path3787" d="M 325.70961,253.99523 333.708,242.52396" transform="translate(0,652.36218)"/><path style="fill:none;stroke:#000;stroke-width:3;stroke-linecap:butt;stroke-linejoin:miter;stroke-miterlimit:4;stroke-opacity:1;stroke-dasharray:none" id="path3791" d="m 298.43369,255.99339 10.55023,3.5324" transform="translate(0,652.36218)"/><path style="fill:none;stroke:#000;stroke-width:3;stroke-linecap:butt;stroke-linejoin:miter;stroke-opacity:1;display:inline;stroke-miterlimit:4;stroke-dasharray:none" id="path3793" d="m 342.5,194.5 0,0" transform="translate(0,652.36218)"/><path style="fill:none;stroke:#000;stroke-width:3;stroke-linecap:butt;stroke-linejoin:miter;stroke-opacity:1;stroke-miterlimit:4;stroke-dasharray:none" id="path3795" d="m 341.79629,205.47785 -1.09258,17.04429" transform="translate(0,652.36218)"/><path style="fill:none;stroke:#000;stroke-width:3;stroke-linecap:butt;stroke-linejoin:miter;stroke-opacity:1;stroke-miterlimit:4;stroke-dasharray:none" id="path3797" d="m 335.36145,186.13066 -14.7229,-17.26133" transform="translate(0,652.36218)"/><path style="fill:#e2007a;fill-opacity:.98823529000000021;stroke:none;stroke-width:7.90438727;stroke-miterlimit:4;stroke-dasharray:none" id="path3595-1" d="m 110,278 c 0,13.25483 -15.670034,24 -35,24 -19.329966,0 -35,-10.74517 -35,-24 0,-13.25483 15.670034,-24 35,-24 19.329966,0 35,10.74517 35,24 z" transform="matrix(0.31428572,0,0,0.45833333,220.82696,713.54712)"/><path style="fill:#008bd0;fill-opacity:.97647059000000003;stroke:none;stroke-width:7.90438727;stroke-miterlimit:4;stroke-dasharray:none" id="path3595-7-9" d="m 110,278 c 0,13.25483 -15.670034,24 -35,24 -19.329966,0 -35,-10.74517 -35,-24 0,-13.25483 15.670034,-24 35,-24 19.329966,0 35,10.74517 35,24 z" transform="matrix(0.31428572,0,0,0.45833333,218.53018,677.3439)"/><path style="fill:none;stroke:#000;stroke-width:3;stroke-linecap:butt;stroke-linejoin:miter;stroke-opacity:1;stroke-miterlimit:4;stroke-dasharray:none" id="path3824" d="m 346.01852,184.07475 6.46296,-19.14951" transform="translate(0,652.36218)"/><path style="fill:none;stroke:#000;stroke-width:3;stroke-linecap:butt;stroke-linejoin:miter;stroke-opacity:1;stroke-miterlimit:4;stroke-dasharray:none" id="path3826" d="m 350.8848,231.90223 32.7304,-4.80446" transform="translate(0,652.36218)"/><path style="fill:none;stroke:#000;stroke-width:3;stroke-linecap:butt;stroke-linejoin:miter;stroke-opacity:1;stroke-miterlimit:4;stroke-dasharray:none" id="path3830" d="m 243.70191,177.6233 -0.90382,-14.24661" transform="translate(0,652.36218)"/><path style="fill:#97be0d;fill-opacity:.98823529;stroke:none" id="path3595-5-8" d="m 110,278 c 0,13.25483 -15.670034,24 -35,24 -19.329966,0 -35,-10.74517 -35,-24 0,-13.25483 15.670034,-24 35,-24 19.329966,0 35,10.74517 35,24 z" transform="matrix(0.31428572,0,0,0.45833333,175.61593,845.53468)"/><path style="fill:#fc0;fill-opacity:.98823529000000021;stroke:none;stroke-width:7.90438727;stroke-miterlimit:4;stroke-dasharray:none" id="path3595-8-16" d="m 110,278 c 0,13.25483 -15.670034,24 -35,24 -19.329966,0 -35,-10.74517 -35,-24 0,-13.25483 15.670034,-24 35,-24 19.329966,0 35,10.74517 35,24 z" transform="matrix(0.31428572,0,0,0.45833333,273.92857,637.94551)"/><path style="fill:#97be0d;fill-opacity:.98823529;stroke:none" id="path3595-5-8-3" d="m 110,278 c 0,13.25483 -15.670034,24 -35,24 -19.329966,0 -35,-10.74517 -35,-24 0,-13.25483 15.670034,-24 35,-24 19.329966,0 35,10.74517 35,24 z" transform="matrix(0.31428572,0,0,0.45833333,239.92857,646.44551)"/><path style="fill:none;stroke:#000;stroke-width:3;stroke-linecap:butt;stroke-linejoin:miter;stroke-miterlimit:4;stroke-opacity:1;stroke-dasharray:none" id="path3881" d="m 274.17409,118.83147 12.65182,-3.16295" transform="translate(0,652.36218)"/><path style="fill:#008bd0;fill-opacity:.97647059;stroke:none" id="path3595-7-7" d="m 110,278 c 0,13.25483 -15.670034,24 -35,24 -19.329966,0 -35,-10.74517 -35,-24 0,-13.25483 15.670034,-24 35,-24 19.329966,0 35,10.74517 35,24 z" transform="matrix(0.31428572,0,0,0.45833333,473.30216,591.63513)"/><path style="fill:#97be0d;fill-opacity:.98823529000000021;stroke:none;stroke-width:7.90438727;stroke-miterlimit:4;stroke-dasharray:none" id="path3595-5-8-9" d="m 110,278 c 0,13.25483 -15.670034,24 -35,24 -19.329966,0 -35,-10.74517 -35,-24 0,-13.25483 15.670034,-24 35,-24 19.329966,0 35,10.74517 35,24 z" transform="matrix(0.31428572,0,0,0.45833333,437.42857,621.44551)"/><path style="fill:#6d1f80;fill-opacity:.98823529;stroke:none" id="path3595-81-2" d="m 110,278 c 0,13.25483 -15.670034,24 -35,24 -19.329966,0 -35,-10.74517 -35,-24 0,-13.25483 15.670034,-24 35,-24 19.329966,0 35,10.74517 35,24 z" transform="matrix(0.31428572,0,0,0.45833333,138.43083,666.16559)"/><path style="fill:#97be0d;fill-opacity:.98823529;stroke:none" id="path3595-5-8-2" d="m 110,278 c 0,13.25483 -15.670034,24 -35,24 -19.329966,0 -35,-10.74517 -35,-24 0,-13.25483 15.670034,-24 35,-24 19.329966,0 35,10.74517 35,24 z" transform="matrix(0.31428572,0,0,0.45833333,150.43083,707.16559)"/><path style="fill:none;stroke:#000;stroke-width:3;stroke-linecap:butt;stroke-linejoin:miter;stroke-opacity:1;stroke-miterlimit:4;stroke-dasharray:none" id="path4005" d="m 63.0476,344.85179 6.701583,15.99963" transform="translate(0,652.36218)"/><path style="fill:none;stroke:#000;stroke-width:3;stroke-linecap:butt;stroke-linejoin:miter;stroke-miterlimit:4;stroke-opacity:1;stroke-dasharray:none" id="path4007" d="m 209.97582,975.10904 23.42308,4.68461"/><path style="fill:none;stroke:#000;stroke-width:3;stroke-linecap:butt;stroke-linejoin:miter;stroke-miterlimit:4;stroke-opacity:1;stroke-dasharray:none" id="path4009" d="m 223.76539,879.70756 10.99067,15.18734"/><path style="fill:none;stroke:#000;stroke-width:3;stroke-linecap:butt;stroke-linejoin:miter;stroke-miterlimit:4;stroke-opacity:1;stroke-dasharray:none" id="path4011" d="m 170.91157,824.0224 -5.81862,-19.88028"/><path style="fill:none;stroke:#000;stroke-width:3;stroke-linecap:butt;stroke-linejoin:miter;stroke-miterlimit:4;stroke-opacity:1;stroke-dasharray:none" id="path4013" d="M 488.41317,726.08227 469.46042,741.8317"/><path style="fill:none;stroke:#000;stroke-width:3;stroke-linecap:butt;stroke-linejoin:miter;stroke-miterlimit:4;stroke-opacity:1;stroke-dasharray:none" id="path4019" d="m 257.2367,130.54394 -8.87179,12.8105" transform="translate(0,652.36218)"/><path style="fill:#fff;fill-opacity:.98823529;stroke:none" id="path3949" d="m 531.39324,1037.8037 0,9.7007 9.70064,-4.8503 -9.70064,-4.8504"/><g id="g4081"><path id="path3595-81-4" d="m 110,278 c 0,13.25483 -15.670034,24 -35,24 -19.329966,0 -35,-10.74517 -35,-24 0,-13.25483 15.670034,-24 35,-24 19.329966,0 35,10.74517 35,24 z" transform="matrix(0.31428572,0,0,0.45833333,549.92857,901.44551)" style="fill:#008bd0;fill-opacity:.97647059;stroke:none"/><g id="g4075" transform="matrix(1.1837867,0,0,1.1837867,-105.32167,-188.37216)"><text style="font-size:12.43292046px;font-style:normal;font-weight:400;writing-mode:lr-tb;fill:#fff;fill-opacity:1;stroke:none;font-family:Bitstream Vera Sans" id="text4046" x="563.511" y="1033.52" xml:space="preserve"><tspan id="tspan4048" x="563.511" y="1033.52" style="font-size:15.98518372px;font-weight:700;writing-mode:lr-tb;fill:#fff;-inkscape-font-specification:Bitstream Vera Sans Bold">4</tspan></text><text style="font-size:12.43292046px;font-style:normal;font-weight:400;writing-mode:lr-tb;fill:#fff;fill-opacity:1;stroke:none;font-family:Bitstream Vera Sans" id="text4046-3" x="572.167" y="1035.764" xml:space="preserve"><tspan id="tspan4048-3" x="572.167" y="1035.764" style="font-size:15.98518372px;font-weight:700;writing-mode:lr-tb;fill:#fff;-inkscape-font-specification:Bitstream Vera Sans Bold">2</tspan></text></g></g><path style="fill:none;stroke:#000;stroke-width:3;stroke-linecap:butt;stroke-linejoin:miter;stroke-miterlimit:4;stroke-opacity:1;stroke-dasharray:none" id="path4145" d="m 537.37746,376.29161 25.12272,0.14493" transform="translate(0,652.36218)"/><g id="g4089" transform="translate(7.5839171,-0.74180539)"><path id="path3595-50-6" d="m 110,278 c 0,13.25483 -15.670034,24 -35,24 -19.329966,0 -35,-10.74517 -35,-24 0,-13.25483 15.670034,-24 35,-24 19.329966,0 35,10.74517 35,24 z" transform="matrix(0.31428572,0,0,0.45833333,500.42857,901.94551)" style="fill:#e53517;fill-opacity:.98823529;stroke:none"/><g style="fill:#fff" id="g4007" transform="matrix(0.41666667,0,0,0.39999997,362.75,626.41733)"><rect style="fill:#fff;fill-opacity:1;stroke:none" id="rect3983" width="10" height="30" x="375" y="340" transform="translate(0,652.36218)"/><rect style="fill:#fff;fill-opacity:1;stroke:none" id="rect3983-4" width="10" height="30" x="389" y="992.362"/></g></g><path style="fill:none;stroke:#000;stroke-width:3;stroke-linecap:butt;stroke-linejoin:miter;stroke-miterlimit:4;stroke-opacity:1;stroke-dasharray:none" id="path4156" d="m 573.87556,365.50629 0.8436,-24.69471" transform="translate(0,652.36218)"/><g id="g4149" transform="translate(-8.6934928,9.4771466)"><path id="path3595-7-0" d="m 110,278 c 0,13.25483 -15.670034,24 -35,24 -19.329966,0 -35,-10.74517 -35,-24 0,-13.25483 15.670034,-24 35,-24 19.329966,0 35,10.74517 35,24 z" transform="matrix(0.31428572,0,0,0.45833333,559.97864,852.25742)" style="fill:#6d1f80;fill-opacity:.98823529;stroke:none"/><text id="text4046-3-2" x="578.025" y="986.696" xml:space="preserve" style="font-size:14.71792603px;font-style:normal;font-weight:400;writing-mode:lr-tb;fill:#fff;fill-opacity:1;stroke:none;font-family:Bitstream Vera Sans"><tspan style="font-size:18.92304802px;font-weight:700;writing-mode:lr-tb;fill:#fff;-inkscape-font-specification:Bitstream Vera Sans Bold" id="tspan4048-3-5" x="578.025" y="986.696">?</tspan></text></g><path style="fill:#97be0d;fill-opacity:.98823529;stroke:none" id="path3595-54" d="m 110,278 c 0,13.25483 -15.670034,24 -35,24 -19.329966,0 -35,-10.74517 -35,-24 0,-13.25483 15.670034,-24 35,-24 19.329966,0 35,10.74517 35,24 z" transform="matrix(0.31428572,0,0,0.45833333,24.808906,706.34566)"/><path style="fill:#e53517;fill-opacity:.98823529;stroke:none" id="path3595-7-94" d="m 110,278 c 0,13.25483 -15.670034,24 -35,24 -19.329966,0 -35,-10.74517 -35,-24 0,-13.25483 15.670034,-24 35,-24 19.329966,0 35,10.74517 35,24 z" transform="matrix(0.31428572,0,0,0.45833333,44.075324,739.48217)"/><path style="fill:none;stroke:#000;stroke-width:3;stroke-linecap:butt;stroke-linejoin:miter;stroke-miterlimit:4;stroke-opacity:1;stroke-dasharray:none" id="path4005-6" d="m 53.910281,843.27334 8.206526,14.11449"/></g></svg>